# xmcd
#
# Track frame offsets:
#	150
#	14540
#	31241
#	48721
#	62611
#	84020
#	103597
#	122594
#	134440
#	150778
#	166432
#	181970
#	200100
#	217989
#	237147
#
# Disc length: 3439 seconds
#
# Revision: 1
# Processed by: cddbd v1.4PL0 Copyright (c) Steve Scherf et al.
# Submitted via: audiograbber 1.81.03
#
DISCID=bf0d6d0f
DTITLE=as - sada
DYEAR=19
DGENRE=1844
TTITLE0=fgdgf
TTITLE1=fdg
TTITLE2=gggggggg
TTITLE3=gggggg
TTITLE4=gggggg
TTITLE5=ggggggg
TTITLE6=ggggg
TTITLE7=gggggg
TTITLE8=ggggggggg
TTITLE9=ggggggg
TTITLE10=gggggggg
TTITLE11=ggggggg
TTITLE12=gggggggg
TTITLE13=gggggggg
TTITLE14=gggggggg
EXTD=
EXTT0=
EXTT1=
EXTT2=
EXTT3=
EXTT4=
EXTT5=
EXTT6=
EXTT7=
EXTT8=
EXTT9=
EXTT10=
EXTT11=
EXTT12=
EXTT13=
EXTT14=
PLAYORDER=
